<svg xmlns="http://www.w3.org/2000/svg" width="700" height="468" viewBox="0 0 700 468">
  <metadata><?xpacket begin="﻿" id="W5M0MpCehiHzreSzNTczkc9d"?>
<x:xmpmeta xmlns:x="adobe:ns:meta/" x:xmptk="Adobe XMP Core 5.6-c142 79.160924, 2017/07/13-01:06:39        ">
   <rdf:RDF xmlns:rdf="http://www.w3.org/1999/02/22-rdf-syntax-ns#">
      <rdf:Description rdf:about=""/>
   </rdf:RDF>
</x:xmpmeta>
                                                                                                    
                                                                                                    
                                                                                                    
                                                                                                    
                                                                                                    
                                                                                                    
                                                                                                    
                                                                                                    
                                                                                                    
                                                                                                    
                                                                                                    
                                                                                                    
                                                                                                    
                                                                                                    
                                                                                                    
                                                                                                    
                                                                                                    
                                                                                                    
                                                                                                    
                                                                                                    
                           
<?xpacket end="w"?></metadata>
<defs>
    <style>
      .cls-1 {
        fill: #fff;
      }

      .cls-1, .cls-2 {
        fill-rule: evenodd;
      }

      .cls-2 {
        fill: #4ad438;
      }
    </style>
  </defs>
  <path id="MAINTENANCE" class="cls-1" d="M90.514,425.557h22.514V329.485H80.555c-2.021,19.619-2.6,28.706-3.9,42.266H75.793c-0.722-11.54-2.886-33.322-3.9-42.266H40.723v96.072H61.649v-24.09c0-16.589-.577-35.774-0.722-47.17h1.155c1.732,18.464,4.762,57.7,5.484,71.26H84.308c0.289-6.491,3.608-47.17,5.34-70.828H90.8c-0.144,12.839-.289,34.621-0.289,47.46v23.368Zm60.753-20.195,1.154,20.195h23.669l-10.1-96.072H129.473l-10.247,96.072h23.38l1.155-20.195h7.5Zm-6.639-19.041c0.433-9.377,1.876-33.467,2.02-37.65h1.011c0.432,5.193,2.164,30.293,2.6,37.65h-5.628Zm38.238-56.836v96.072h22.8V329.485h-22.8Zm52.53,96.072v-2.308c0-11.107-1.876-42.7-2.6-53.373h1.155c0.433,3.174,7.216,47.459,8.37,55.681h25.834V329.485h-21.5v3.462c0,8.944,1.876,33.755,3.464,48.9h-1.011c-0.577-4.039-7.793-41.833-10.1-52.364H215.046v96.072H235.4Zm50.075,0h22.8V348.382h11.4v-18.9H274.068v18.9h11.4v77.175Zm81.248-60.009H349.111V348.382h18.473v-18.9h-41.42v96.072h41.564l2.6-18.9H349.111V384.445h17.607v-18.9Zm30.158,60.009v-2.308c0-11.107-1.876-42.7-2.6-53.373h1.155c0.433,3.174,7.216,47.459,8.37,55.681h25.834V329.485h-21.5v3.462c0,8.944,1.876,33.755,3.463,48.9h-1.01c-0.577-4.039-7.793-41.833-10.1-52.364H376.527v96.072h20.349Zm71-20.195,1.155,20.195H492.7l-10.1-96.072H446.084l-10.247,96.072h23.38l1.155-20.195h7.5Zm-6.638-19.041c0.433-9.377,1.876-33.467,2.02-37.65h1.01c0.433,5.193,2.165,30.293,2.6,37.65h-5.628Zm58.442,39.236v-2.308c0-11.107-1.876-42.7-2.6-53.373h1.154c0.433,3.174,7.216,47.459,8.371,55.681h25.833V329.485h-21.5v3.462c0,8.944,1.876,33.755,3.464,48.9h-1.01c-0.578-4.039-7.794-41.833-10.1-52.364H499.331v96.072H519.68Zm70.568-35.63v12.117c0,5.193-.722,6.924-3.319,6.924-2.31,0-2.887-1.731-2.887-6.491V352.133c0-4.328.577-6.2,3.175-6.2,2.742,0,3.031,2.308,3.031,6.2v11.4h23.236v-8.944c0-10.819-2.743-26.542-26.267-26.542-14.865,0-26.122,6.2-26.122,26.686v44.863c0,22.936,12.7,27.408,25.545,27.408,23.668,0,26.844-14.57,26.844-29.428v-7.645H590.248Zm71.288-24.379H643.929V348.382H662.4v-18.9h-41.42v96.072h41.564l2.6-18.9H643.929V384.445h17.607v-18.9Z"/>
  <path id="SCHEDULED" class="cls-2" d="M35,276.556v7.191c0,21.394,8.633,33.8,31.3,33.8,25.361,0,32.016-13.844,32.016-35.777,0-19.057-7.734-26.607-24.1-41.17-8.993-8.09-10.072-10.607-10.072-16.9,0-5.393,1.259-7.191,3.417-7.191,2.7,0,3.777,1.618,3.777,7.73v9.169H96.514v-7.371c0-16.18-4.5-31.821-30.038-31.821-23.2,0-30.4,14.742-30.4,33.978,0,17.439,6.835,24.451,21.4,38.114,10.972,10.248,12.051,12.944,12.051,21.933,0,4.5-.9,7.012-3.417,7.012-2.7,0-3.957-1.8-3.957-8.989v-9.708H35Zm108.454-5.214v15.1c0,6.473-.9,8.63-4.137,8.63-2.878,0-3.6-2.157-3.6-8.09V224.239c0-5.393.72-7.73,3.957-7.73,3.418,0,3.778,2.876,3.778,7.73v14.2h28.958V227.3c0-13.484-3.418-33.08-32.736-33.08-18.526,0-32.555,7.73-32.555,33.259v55.912c0,28.585,15.828,34.159,31.836,34.159,29.5,0,33.455-18.158,33.455-36.676v-9.528H143.454Zm38.3,44.406h28.6V264.87h8.634v50.878h28.958V196.014H218.989v45.125h-8.634V196.014h-28.6V315.748ZM310,240.959H288.051V219.565h23.023V196.014H259.452V315.748h51.8l3.237-23.552h-26.44V264.51H310V240.959Zm12.224,74.789h35.433c24.282,0,30.757-13.664,30.757-38.653V233.049c0-27.866-11.331-37.035-34.894-37.035h-31.3V315.748Zm28.6-98.34h2.338c3.957,0,6.3,1.438,6.3,7.73v61.3c0,5.394-1.619,7.911-6.116,7.911h-2.518V217.408Zm48.018-21.394v88.272c0,23.551,9.533,32.9,32.376,32.9,21.944,0,33.815-7.011,33.815-32.361V196.014H435.708v92.407c0,4.5-.9,6.652-4.137,6.652-2.7,0-3.777-2.337-3.777-6.652V196.014H398.835Zm77.337,119.734h52.52l2.878-24.271h-26.8V196.014h-28.6V315.748Zm112.413-74.789H566.642V219.565h23.023V196.014H538.043V315.748h51.8l3.237-23.552h-26.44V264.51h21.943V240.959Zm12.225,74.789h35.433c24.282,0,30.757-13.664,30.757-38.653V233.049c0-27.866-11.332-37.035-34.894-37.035h-31.3V315.748Zm28.6-98.34h2.338c3.957,0,6.3,1.438,6.3,7.73v61.3c0,5.394-1.619,7.911-6.116,7.911h-2.518V217.408Z"/>
  <path id="DOWN_FOR" data-name="DOWN FOR" class="cls-1" d="M35.405,181.849H75.888c27.742,0,35.14-15.611,35.14-44.161V87.366c0-31.837-12.946-42.312-39.866-42.312H35.405V181.849ZM68.079,69.5H70.75c4.521,0,7.192,1.643,7.192,8.832v70.041c0,6.162-1.849,9.037-6.987,9.037H68.079V69.5ZM159.937,43c-21.783,0-37.4,10.886-37.4,36.15v66.959c0,26.908,13.563,37.794,36.578,37.794,23.837,0,39.044-10.065,39.044-37.794V80.793C198.159,54.092,181.719,43,159.937,43Zm0,25.675c3.7,0,5.137,1.849,5.137,8.01v73.327c0,5.546-1.849,8.216-4.932,8.216-3.493,0-4.932-3.081-4.932-8.216V76.891C155.21,70.729,156.854,68.675,159.937,68.675Zm92.271,113.174c1.028-17.048,2.877-31.015,4.316-55.047h1.849c1.233,25.675,2.671,42.723,3.493,55.047H296.8L308.924,45.054H277.689c0.206,8.421-1.233,62.03-1.644,83.6h-2.26c-1.644-22.389-1.849-63.879-2.671-83.6H247.482c-1.439,26.7-2.055,63.879-3.494,82.981h-1.849c0-11.5-1.438-65.933-1.644-82.981H206.589l9.658,136.795h35.961Zm94.327,0v-3.287c0-15.815-2.672-60.8-3.7-76h1.644c0.616,4.519,10.274,67.576,11.918,79.284h36.784V45.054H362.563v4.929c0,12.735,2.672,48.063,4.932,69.63h-1.438c-0.822-5.751-11.1-59.565-14.385-74.559H317.56V181.849h28.975Zm85.488,0H464.7V125.57h25.275V98.663H464.7v-26.7h27.536V45.054h-60.21V181.849ZM537.032,43c-21.783,0-37.4,10.886-37.4,36.15v66.959c0,26.908,13.562,37.794,36.578,37.794,23.837,0,39.044-10.065,39.044-37.794V80.793C575.254,54.092,558.814,43,537.032,43Zm0,25.675c3.7,0,5.137,1.849,5.137,8.01v73.327c0,5.546-1.849,8.216-4.932,8.216-3.493,0-4.932-3.081-4.932-8.216V76.891C532.3,70.729,533.949,68.675,537.032,68.675ZM621.7,124.132c6.576,0,7.809,1.027,7.809,14.583h0c0,31.221.411,40.669,1.849,43.134H663c-0.616-5.341-.411-20.951-0.411-37.383h0c0-19.923-2.671-27.523-12.535-32.042,8.014-4.108,13.152-11.913,13.152-27.318v-4.93c0-21.567-8.426-35.123-35.14-35.123H587.586V181.849h32.468V124.132H621.7Zm-1.439-54.841h1.85c6.37,0,8.22,1.643,8.22,9.243V89.42c0,8.627-2.261,10.475-7.6,10.475h-2.466v-30.6Z"/>
</svg>
