<svg id="Type_Original_dont_convert_copy_2" data-name="Type Original (dont convert) copy 2" xmlns="http://www.w3.org/2000/svg" width="700" height="468" viewBox="0 0 700 468">
  <metadata><?xpacket begin="﻿" id="W5M0MpCehiHzreSzNTczkc9d"?>
<x:xmpmeta xmlns:x="adobe:ns:meta/" x:xmptk="Adobe XMP Core 5.6-c142 79.160924, 2017/07/13-01:06:39        ">
   <rdf:RDF xmlns:rdf="http://www.w3.org/1999/02/22-rdf-syntax-ns#">
      <rdf:Description rdf:about=""/>
   </rdf:RDF>
</x:xmpmeta>
                                                                                                    
                                                                                                    
                                                                                                    
                                                                                                    
                                                                                                    
                                                                                                    
                                                                                                    
                                                                                                    
                                                                                                    
                                                                                                    
                                                                                                    
                                                                                                    
                                                                                                    
                                                                                                    
                                                                                                    
                                                                                                    
                                                                                                    
                                                                                                    
                                                                                                    
                                                                                                    
                           
<?xpacket end="w"?></metadata>
<defs>
    <style>
      .cls-1, .cls-2, .cls-3, .cls-4 {
        fill-rule: evenodd;
      }

      .cls-2 {
        fill: #fff;
      }

      .cls-3 {
        fill: #91dcff;
      }

      .cls-4 {
        fill: #60b0ff;
      }
    </style>
  </defs>
  <path id="Maintenance_Shadow" data-name="Maintenance Shadow" class="cls-1" d="M84.548,430h23.4V330.1H74.2c-2.1,20.4-2.7,29.849-4.05,43.948h-0.9c-0.75-12-3-34.648-4.05-43.948H32.8V430H54.549V404.951c0-17.249-.6-37.2-0.75-49.048H55c1.8,19.2,4.95,60,5.7,74.1H78.1c0.3-6.75,3.75-49.048,5.55-73.647h1.2c-0.15,13.349-.3,36-0.3,49.348V430Zm86.846-60.748c0-15.449-10.2-21.3-26.1-21.3-16.949,0-26.7,6.3-26.7,24.3v2.1h22.349v-3.3c0-4.8,1.05-6.149,3.15-6.149s3.15,1.05,3.15,5.4v9h-1.2c-15.749,0-29.849,4.95-29.849,26.249v1.65c0,12.749,4.8,23.849,17.25,23.849,5.549,0,10.949-1.65,14.549-7.35,0.15,1.5.6,5.1,1.35,6.3h22.8c-0.45-4.05-.75-9.45-0.75-20.7V369.252Zm-24.149,36.3c0,4.05-.9,6.3-3.45,6.3-2.25,0-3.75-1.65-3.75-7.8v-0.6c0-6.3,2.25-9,6.15-9h1.05v11.1ZM179.794,430h23.849V349.153H179.794V430Zm0-85.8h23.849V325.6H179.794v18.6Zm32.25,85.8h23.849V374.2c0-4.8,1.2-6.449,3.9-6.449,3,0,3.3,3.3,3.3,5.849V430h23.849V367.9c0-11.7-3.9-19.95-16.049-19.95a18.479,18.479,0,0,0-15.449,7.5c-0.15-1.8-.3-3.75-0.75-6.3H211.744c0.15,1.95.3,12,.3,22.8V430Zm59.4-59.548h6.75v40.8c0,13.5,3.45,19.5,17.549,19.5,2.7,0,9-.15,13.5-1.5v-19.2a15.546,15.546,0,0,1-2.4.15c-4.05,0-4.65-1.2-4.65-4.8V370.452h8.1v-21.3h-8.1V332.5h-23.4v16.649h-7.35v21.3Zm98.4,24.6V374.2c0-18.749-11.25-26.249-27-26.249-16.05,0-27.3,8.4-27.3,26.249v30.749c0,17.1,7.5,26.4,26.849,26.4,21.149,0,27.3-10.95,27.3-26.4V402.4H346.743v4.5c0,4.95-1.2,6.3-3.75,6.3-2.4,0-3.3-1.65-3.3-5.85v-12.3h30.149ZM339.693,380.2v-8.25c0-4.2,1.05-6.449,3.45-6.449,3,0,3.45,2.4,3.45,6.449v8.25h-6.9Zm37.8,49.8h23.849V374.2c0-4.8,1.2-6.449,3.9-6.449,3,0,3.3,3.3,3.3,5.849V430h23.849V367.9c0-11.7-3.9-19.95-16.049-19.95a18.481,18.481,0,0,0-15.45,7.5c-0.15-1.8-.3-3.75-0.75-6.3H377.193c0.15,1.95.3,12,.3,22.8V430Zm117.3-60.748c0-15.449-10.2-21.3-26.1-21.3-16.949,0-26.7,6.3-26.7,24.3v2.1h22.35v-3.3c0-4.8,1.05-6.149,3.149-6.149s3.15,1.05,3.15,5.4v9h-1.2c-15.749,0-29.848,4.95-29.848,26.249v1.65c0,12.749,4.8,23.849,17.249,23.849,5.55,0,10.949-1.65,14.549-7.35,0.15,1.5.6,5.1,1.35,6.3h22.8c-0.45-4.05-.75-9.45-0.75-20.7V369.252Zm-24.149,36.3c0,4.05-.9,6.3-3.45,6.3-2.249,0-3.749-1.65-3.749-7.8v-0.6c0-6.3,2.249-9,6.149-9h1.05v11.1ZM503.191,430H527.04V374.2c0-4.8,1.2-6.449,3.9-6.449,3,0,3.3,3.3,3.3,5.849V430h23.849V367.9c0-11.7-3.9-19.95-16.049-19.95a18.479,18.479,0,0,0-15.449,7.5c-0.15-1.8-.3-3.75-0.75-6.3H502.891c0.15,1.95.3,12,.3,22.8V430Zm92.548-31.2v7.05c0,4.95-.45,7.2-3,7.2-2.4,0-3-1.95-3-5.85V371.952c0-3.749.3-6,3-6,2.4,0,3,1.8,3,6.3v7.2h22.2V373.6c0-13.349-4.35-25.649-25.649-25.649-19.2,0-26.4,10.8-26.4,26.4V403.9c0,19.2,7.2,27.449,25.349,27.449,21.149,0,26.249-10.05,26.249-26.549v-6H595.739Zm83.546-3.75V374.2c0-18.749-11.249-26.249-27-26.249-16.049,0-27.3,8.4-27.3,26.249v30.749c0,17.1,7.5,26.4,26.849,26.4,21.15,0,27.3-10.95,27.3-26.4V402.4H656.186v4.5c0,4.95-1.2,6.3-3.75,6.3-2.4,0-3.3-1.65-3.3-5.85v-12.3h30.149ZM649.136,380.2v-8.25c0-4.2,1.05-6.449,3.45-6.449,3,0,3.45,2.4,3.45,6.449v8.25h-6.9Z"/>
  <path id="Maintenance" class="cls-2" d="M81.548,428h23.4V328.1H71.2c-2.1,20.4-2.7,29.849-4.05,43.948h-0.9c-0.75-12-3-34.648-4.05-43.948H29.8V428H51.549V402.951c0-17.249-.6-37.2-0.75-49.048H52c1.8,19.2,4.95,60,5.7,74.1H75.1c0.3-6.75,3.75-49.048,5.55-73.647h1.2c-0.15,13.349-.3,36-0.3,49.348V428Zm86.846-60.748c0-15.449-10.2-21.3-26.1-21.3-16.949,0-26.7,6.3-26.7,24.3v2.1h22.349v-3.3c0-4.8,1.05-6.149,3.15-6.149s3.15,1.05,3.15,5.4v9h-1.2c-15.749,0-29.849,4.95-29.849,26.249v1.65c0,12.749,4.8,23.849,17.25,23.849,5.549,0,10.949-1.65,14.549-7.35,0.15,1.5.6,5.1,1.35,6.3h22.8c-0.45-4.05-.75-9.45-0.75-20.7V367.252Zm-24.149,36.3c0,4.05-.9,6.3-3.45,6.3-2.25,0-3.75-1.65-3.75-7.8v-0.6c0-6.3,2.25-9,6.15-9h1.05v11.1ZM176.794,428h23.849V347.153H176.794V428Zm0-85.8h23.849V323.6H176.794v18.6Zm32.25,85.8h23.849V372.2c0-4.8,1.2-6.449,3.9-6.449,3,0,3.3,3.3,3.3,5.849V428h23.849V365.9c0-11.7-3.9-19.95-16.049-19.95a18.479,18.479,0,0,0-15.449,7.5c-0.15-1.8-.3-3.75-0.75-6.3H208.744c0.15,1.95.3,12,.3,22.8V428Zm59.4-59.548h6.75v40.8c0,13.5,3.45,19.5,17.549,19.5,2.7,0,9-.15,13.5-1.5v-19.2a15.546,15.546,0,0,1-2.4.15c-4.05,0-4.65-1.2-4.65-4.8V368.452h8.1v-21.3h-8.1V330.5h-23.4v16.649h-7.35v21.3Zm98.4,24.6V372.2c0-18.749-11.25-26.249-27-26.249-16.05,0-27.3,8.4-27.3,26.249v30.749c0,17.1,7.5,26.4,26.849,26.4,21.149,0,27.3-10.95,27.3-26.4V400.4H343.743v4.5c0,4.95-1.2,6.3-3.75,6.3-2.4,0-3.3-1.65-3.3-5.85v-12.3h30.149ZM336.693,378.2v-8.25c0-4.2,1.05-6.449,3.45-6.449,3,0,3.45,2.4,3.45,6.449v8.25h-6.9Zm37.8,49.8h23.849V372.2c0-4.8,1.2-6.449,3.9-6.449,3,0,3.3,3.3,3.3,5.849V428h23.849V365.9c0-11.7-3.9-19.95-16.049-19.95a18.481,18.481,0,0,0-15.45,7.5c-0.15-1.8-.3-3.75-0.75-6.3H374.193c0.15,1.95.3,12,.3,22.8V428Zm117.3-60.748c0-15.449-10.2-21.3-26.1-21.3-16.949,0-26.7,6.3-26.7,24.3v2.1h22.35v-3.3c0-4.8,1.05-6.149,3.149-6.149s3.15,1.05,3.15,5.4v9h-1.2c-15.749,0-29.848,4.95-29.848,26.249v1.65c0,12.749,4.8,23.849,17.249,23.849,5.55,0,10.949-1.65,14.549-7.35,0.15,1.5.6,5.1,1.35,6.3h22.8c-0.45-4.05-.75-9.45-0.75-20.7V367.252Zm-24.149,36.3c0,4.05-.9,6.3-3.45,6.3-2.249,0-3.749-1.65-3.749-7.8v-0.6c0-6.3,2.249-9,6.149-9h1.05v11.1ZM500.191,428H524.04V372.2c0-4.8,1.2-6.449,3.9-6.449,3,0,3.3,3.3,3.3,5.849V428h23.849V365.9c0-11.7-3.9-19.95-16.049-19.95a18.479,18.479,0,0,0-15.449,7.5c-0.15-1.8-.3-3.75-0.75-6.3H499.891c0.15,1.95.3,12,.3,22.8V428Zm92.548-31.2v7.05c0,4.95-.45,7.2-3,7.2-2.4,0-3-1.95-3-5.85V369.952c0-3.749.3-6,3-6,2.4,0,3,1.8,3,6.3v7.2h22.2V371.6c0-13.349-4.35-25.649-25.649-25.649-19.2,0-26.4,10.8-26.4,26.4V401.9c0,19.2,7.2,27.449,25.349,27.449,21.149,0,26.249-10.05,26.249-26.549v-6H592.739Zm83.546-3.75V372.2c0-18.749-11.249-26.249-27-26.249-16.049,0-27.3,8.4-27.3,26.249v30.749c0,17.1,7.5,26.4,26.849,26.4,21.15,0,27.3-10.95,27.3-26.4V400.4H653.186v4.5c0,4.95-1.2,6.3-3.75,6.3-2.4,0-3.3-1.65-3.3-5.85v-12.3h30.149ZM646.136,378.2v-8.25c0-4.2,1.05-6.449,3.45-6.449,3,0,3.45,2.4,3.45,6.449v8.25h-6.9Z"/>
  <path id="Scheduled_Shadow" data-name="Scheduled Shadow" class="cls-1" d="M33.96,280.074v7.45c0,22.162,8.939,35.012,32.4,35.012,26.259,0,33.15-14.34,33.15-37.061,0-19.741-8.008-27.563-24.956-42.648-9.312-8.38-10.429-10.988-10.429-17.506,0-5.587,1.3-7.449,3.538-7.449,2.793,0,3.911,1.676,3.911,8.008v9.5H97.652v-7.636c0-16.761-4.656-32.964-31.1-32.964-24.024,0-31.474,15.272-31.474,35.2,0,18.065,7.077,25.328,22.162,39.482,11.36,10.615,12.478,13.409,12.478,22.721,0,4.656-.931,7.263-3.538,7.263-2.794,0-4.1-1.863-4.1-9.312V280.074H33.96Zm111.555,1.863v8.753c0,6.146-.558,8.939-3.725,8.939-2.979,0-3.724-2.421-3.724-7.263V248.6c0-4.656.372-7.45,3.724-7.45,2.98,0,3.725,2.235,3.725,7.822v8.939h27.563v-7.263c0-16.575-5.4-31.846-31.846-31.846-23.838,0-32.778,13.409-32.778,32.777v36.689c0,23.838,8.94,34.081,31.474,34.081,26.259,0,32.591-12.478,32.591-32.964v-7.449h-27Zm36.131-90.883v129.62h29.612V252.7c0-7.636,1.862-9.312,4.842-9.312,3.538,0,4.1,3.166,4.1,7.263v70.025h29.984V244.131c0-14.713-4.842-25.328-20.486-25.328-8.194,0-14.526,3.538-18.437,8.753v-36.5H181.646Zm145.639,86.227V251.394c0-23.279-13.968-32.591-33.522-32.591-19.928,0-33.895,10.429-33.895,32.591v38.178c0,21.231,9.312,32.778,33.336,32.778,26.259,0,33.895-13.6,33.895-32.778v-3.166H298.605v5.587c0,6.146-1.49,7.822-4.656,7.822-2.98,0-4.1-2.048-4.1-7.263V277.281h37.433Zm-37.433-18.438V248.6c0-5.215,1.3-8.009,4.283-8.009,3.725,0,4.284,2.98,4.284,8.009v10.242h-8.567Zm85.669-67.789v35.2c-2.608-5.028-8.94-7.449-15.83-7.449-17.693,0-22.721,13.968-22.721,29.425v45.814c0,20.113,8.939,28.308,20.672,28.308,8.381,0,14.154-2.235,19.182-10.243,0.187,3.166.559,6.146,0.931,8.567h27.75c-0.187-5.029-.373-16.762-0.373-27.563V191.054H375.521Zm-4.47,52.332c3.352,0,4.47,1.862,4.47,7.449V290.5c0,4.655-1.676,7.263-4.47,7.263-3.166,0-4.47-2.794-4.47-7.077V250.835C366.581,245.248,368.257,243.386,371.051,243.386Zm112.675-23.093H454.115v68.534c0,6.332-.931,8.94-4.656,8.94-3.166,0-4.283-2.608-4.283-6.891V220.293H415.564v76.729c0,20.672,9.5,25.328,19.741,25.328,7.636,0,13.968-2.421,19.183-9.5a67.828,67.828,0,0,0,.931,7.822H484.1c-0.373-5.96-.373-15.83-0.373-35.2V220.293ZM523.77,320.674V191.054H494.158v129.62H523.77Zm77.1-43.393V251.394c0-23.279-13.967-32.591-33.522-32.591-19.927,0-33.895,10.429-33.895,32.591v38.178c0,21.231,9.312,32.778,33.336,32.778,26.259,0,33.895-13.6,33.895-32.778v-3.166H572.192v5.587c0,6.146-1.49,7.822-4.656,7.822-2.98,0-4.1-2.048-4.1-7.263V277.281h37.433Zm-37.433-18.438V248.6c0-5.215,1.3-8.009,4.283-8.009,3.725,0,4.284,2.98,4.284,8.009v10.242h-8.567Zm85.669-67.789v35.2c-2.607-5.028-8.939-7.449-15.83-7.449-17.693,0-22.721,13.968-22.721,29.425v45.814c0,20.113,8.939,28.308,20.672,28.308,8.381,0,14.154-2.235,19.182-10.243,0.187,3.166.559,6.146,0.932,8.567h27.749c-0.187-5.029-.373-16.762-0.373-27.563V191.054H649.108Zm-4.47,52.332c3.352,0,4.47,1.862,4.47,7.449V290.5c0,4.655-1.676,7.263-4.47,7.263-3.166,0-4.469-2.794-4.469-7.077V250.835C640.169,245.248,641.845,243.386,644.638,243.386Z"/>
  <path id="Scheduled" class="cls-3" d="M30.96,278.074v7.45c0,22.162,8.939,35.012,32.4,35.012,26.259,0,33.15-14.34,33.15-37.061,0-19.741-8.008-27.563-24.956-42.648-9.312-8.38-10.429-10.988-10.429-17.506,0-5.587,1.3-7.449,3.539-7.449,2.793,0,3.911,1.676,3.911,8.008v9.5H94.652v-7.636c0-16.761-4.656-32.964-31.1-32.964-24.024,0-31.474,15.272-31.474,35.2,0,18.065,7.077,25.328,22.162,39.482,11.36,10.615,12.478,13.409,12.478,22.721,0,4.656-.931,7.263-3.538,7.263-2.794,0-4.1-1.863-4.1-9.312V278.074H30.96Zm111.555,1.863v8.753c0,6.146-.558,8.939-3.725,8.939-2.979,0-3.724-2.421-3.724-7.263V246.6c0-4.656.372-7.45,3.724-7.45,2.98,0,3.725,2.235,3.725,7.822v8.939h27.563v-7.263c0-16.575-5.4-31.846-31.846-31.846-23.838,0-32.778,13.409-32.778,32.777v36.689c0,23.838,8.94,34.081,31.474,34.081,26.259,0,32.591-12.478,32.591-32.964v-7.449h-27Zm36.131-90.883v129.62h29.612V250.7c0-7.636,1.862-9.312,4.842-9.312,3.538,0,4.1,3.166,4.1,7.263v70.025h29.984V242.131c0-14.713-4.842-25.328-20.486-25.328-8.194,0-14.526,3.538-18.437,8.753v-36.5H178.646Zm145.639,86.227V249.394c0-23.279-13.968-32.591-33.522-32.591-19.928,0-33.895,10.429-33.895,32.591v38.178c0,21.231,9.312,32.778,33.336,32.778,26.259,0,33.895-13.6,33.895-32.778v-3.166H295.605v5.587c0,6.146-1.49,7.822-4.656,7.822-2.98,0-4.1-2.048-4.1-7.263V275.281h37.433Zm-37.433-18.438V246.6c0-5.215,1.3-8.009,4.283-8.009,3.725,0,4.284,2.98,4.284,8.009v10.242h-8.567Zm85.669-67.789v35.2c-2.608-5.028-8.94-7.449-15.83-7.449-17.693,0-22.721,13.968-22.721,29.425v45.814c0,20.113,8.939,28.308,20.672,28.308,8.381,0,14.154-2.235,19.182-10.243,0.187,3.166.559,6.146,0.931,8.567h27.75c-0.187-5.029-.373-16.762-0.373-27.563V189.054H372.521Zm-4.47,52.332c3.352,0,4.47,1.862,4.47,7.449V288.5c0,4.655-1.676,7.263-4.47,7.263-3.166,0-4.47-2.794-4.47-7.077V248.835C363.581,243.248,365.257,241.386,368.051,241.386Zm112.675-23.093H451.115v68.534c0,6.332-.931,8.94-4.656,8.94-3.166,0-4.283-2.608-4.283-6.891V218.293H412.564v76.729c0,20.672,9.5,25.328,19.741,25.328,7.636,0,13.968-2.421,19.183-9.5a67.828,67.828,0,0,0,.931,7.822H481.1c-0.373-5.96-.373-15.83-0.373-35.2V218.293ZM520.77,318.674V189.054H491.158v129.62H520.77Zm77.1-43.393V249.394c0-23.279-13.967-32.591-33.522-32.591-19.927,0-33.895,10.429-33.895,32.591v38.178c0,21.231,9.312,32.778,33.336,32.778,26.259,0,33.895-13.6,33.895-32.778v-3.166H569.192v5.587c0,6.146-1.49,7.822-4.656,7.822-2.98,0-4.1-2.048-4.1-7.263V275.281h37.433Zm-37.433-18.438V246.6c0-5.215,1.3-8.009,4.283-8.009,3.725,0,4.284,2.98,4.284,8.009v10.242h-8.567Zm85.669-67.789v35.2c-2.607-5.028-8.939-7.449-15.83-7.449-17.693,0-22.721,13.968-22.721,29.425v45.814c0,20.113,8.939,28.308,20.672,28.308,8.381,0,14.154-2.235,19.182-10.243,0.187,3.166.559,6.146,0.932,8.567h27.749c-0.187-5.029-.373-16.762-0.373-27.563V189.054H646.108Zm-4.47,52.332c3.352,0,4.47,1.862,4.47,7.449V288.5c0,4.655-1.676,7.263-4.47,7.263-3.166,0-4.469-2.794-4.469-7.077V248.835C637.169,243.248,638.845,241.386,641.638,241.386Z"/>
  <path id="Down_For_Shadow" data-name="Down For Shadow" class="cls-1" d="M35.237,187.131H77.583c29.019,0,36.757-16.336,36.757-46.215V88.253c0-33.318-13.542-44.28-41.7-44.28h-37.4V187.131ZM69.415,69.552h2.794c4.729,0,7.523,1.72,7.523,9.243v73.3c0,6.449-1.935,9.458-7.308,9.458H69.415v-92Zm94.8,0c-21.71,0-38.691,10.962-38.691,36.972v44.71c0,27.084,15.047,37.832,38.691,37.832,24.075,0,39.981-10.748,39.981-37.832V107.6C204.192,79.44,187.426,69.552,164.211,69.552Zm0.645,25.794c4.084,0,5.159,3.224,5.159,7.953v50.729c0,4.943-.86,8.6-5.159,8.6-3.654,0-5.159-2.8-5.159-8.6V103.515C159.7,98.786,160.987,95.347,164.856,95.347Zm44.926-24.075,18.486,115.859H264.6c2.364-17.2,6.233-42.775,7.738-55.672h1.5c2.149,12.9,4.3,36.541,6.233,55.672h37.187L336.6,71.272H301.781c-0.859,15.477-3.439,61.691-4.3,72.869h-1.719c-1.5-23-4.3-53.523-5.159-72.869H258.146c-0.86,18.271-3.439,58.467-4.729,72.654h-1.5c-0.214-5.159-3.654-55.888-4.728-72.654h-37.4ZM344.558,187.131h34.178V107.169c0-6.879,1.72-9.243,5.589-9.243,4.3,0,4.729,4.729,4.729,8.383v80.822h34.177V98.141c0-16.766-5.589-28.589-23-28.589-12.252,0-18.916,6.448-22.14,10.748-0.215-2.579-.43-5.374-1.075-9.028H344.129c0.215,2.794.429,17.2,0.429,32.673v83.186Zm118.443,0h34.178v-58.9h26.439V100.075H497.179V72.132h28.8V43.973H463V187.131ZM572.843,69.552c-21.711,0-38.692,10.962-38.692,36.972v44.71c0,27.084,15.047,37.832,38.692,37.832,24.074,0,39.981-10.748,39.981-37.832V107.6C612.824,79.44,596.058,69.552,572.843,69.552Zm0.645,25.794c4.084,0,5.158,3.224,5.158,7.953v50.729c0,4.943-.859,8.6-5.158,8.6-3.655,0-5.159-2.8-5.159-8.6V103.515C568.329,98.786,569.618,95.347,573.488,95.347ZM624,187.131h34.177V123.72c0-10.962,5.8-14.4,20.636-14.4V69.552c-10.533.215-18.056,7.093-21.28,16.121a132.008,132.008,0,0,0-1.075-14.4H623.572c0.215,6.019.43,18.916,0.43,39.551v76.308Z"/>
  <path id="Down_For" data-name="Down For" class="cls-4" d="M32.237,185.131H74.583c29.019,0,36.757-16.336,36.757-46.215V86.253c0-33.318-13.542-44.28-41.7-44.28h-37.4V185.131ZM66.415,67.552h2.794c4.729,0,7.523,1.72,7.523,9.243v73.3c0,6.449-1.935,9.458-7.308,9.458H66.415v-92Zm94.8,0c-21.71,0-38.691,10.962-38.691,36.972v44.71c0,27.084,15.047,37.832,38.691,37.832,24.075,0,39.981-10.748,39.981-37.832V105.6C201.192,77.44,184.426,67.552,161.211,67.552Zm0.645,25.794c4.084,0,5.159,3.224,5.159,7.953v50.729c0,4.943-.86,8.6-5.159,8.6-3.654,0-5.159-2.8-5.159-8.6V101.515C156.7,96.786,157.987,93.347,161.856,93.347Zm44.926-24.075,18.486,115.859H261.6c2.364-17.2,6.233-42.775,7.738-55.672h1.5c2.149,12.9,4.3,36.541,6.233,55.672h37.187L333.6,69.272H298.781c-0.859,15.477-3.439,61.691-4.3,72.869h-1.719c-1.5-23-4.3-53.523-5.159-72.869H255.146c-0.86,18.271-3.439,58.467-4.729,72.654h-1.5c-0.214-5.159-3.654-55.888-4.728-72.654h-37.4ZM341.558,185.131h34.178V105.169c0-6.879,1.72-9.243,5.589-9.243,4.3,0,4.729,4.729,4.729,8.383v80.822h34.177V96.141c0-16.766-5.589-28.589-23-28.589-12.252,0-18.916,6.448-22.14,10.748-0.215-2.579-.43-5.374-1.075-9.028H341.129c0.215,2.794.429,17.2,0.429,32.673v83.186Zm118.443,0h34.178v-58.9h26.439V98.076H494.179V70.132h28.8V41.973H460V185.131ZM569.843,67.552c-21.711,0-38.692,10.962-38.692,36.972v44.71c0,27.084,15.047,37.832,38.692,37.832,24.074,0,39.981-10.748,39.981-37.832V105.6C609.824,77.44,593.058,67.552,569.843,67.552Zm0.645,25.794c4.084,0,5.158,3.224,5.158,7.953v50.729c0,4.943-.859,8.6-5.158,8.6-3.655,0-5.159-2.8-5.159-8.6V101.515C565.329,96.786,566.618,93.347,570.488,93.347ZM621,185.131h34.177V121.72c0-10.962,5.8-14.4,20.636-14.4V67.552c-10.533.215-18.056,7.093-21.28,16.121a132.008,132.008,0,0,0-1.075-14.4H620.572c0.215,6.019.43,18.916,0.43,39.551v76.308Z"/>
</svg>
